<svg width="441.75" height="490.5" viewBox="0 0 441.75 490.5" fill="none" xmlns="http://www.w3.org/2000/svg">
<g clip-path="url(#clip0_34_2)">
<path d="M298.021 225.014C288.405 215.973 287.844 199.049 295.783 188.712L295.114 189.134C291.868 191.376 289.258 194.462 287.549 198.078C285.839 201.694 285.092 205.711 285.383 209.72C285.716 214.489 287.268 219.082 289.883 223.035C290.104 223.363 289.626 223.704 289.373 223.441C286.397 220.323 284.362 216.386 283.513 212.105C282.664 207.824 283.037 203.381 284.587 199.312C286.029 195.408 288.384 191.929 291.445 189.183C294.345 186.782 297.625 184.913 301.141 183.656C308.485 178.576 317.925 177.001 325.017 171.462C332.108 165.924 335.72 157.267 336.951 148.126C336.411 150.662 335.656 153.146 334.695 155.547C332.72 160.341 329.887 165.522 325.949 168.869C325.567 169.178 324.949 168.783 325.237 168.311C326.565 166.144 328.051 164.093 329.236 161.795C330.364 159.655 331.325 157.425 332.108 155.128C332.205 154.867 332.269 154.606 332.35 154.345C329.483 158.772 325.861 162.629 321.659 165.731C317.578 168.793 312.822 170.764 307.817 171.468C307.695 171.502 307.564 171.485 307.455 171.42C307.345 171.356 307.264 171.249 307.231 171.123C307.198 170.997 307.215 170.863 307.278 170.75C307.341 170.637 307.445 170.554 307.567 170.52C315.407 167.448 322.385 162.429 327.88 155.909C331.339 151.49 333.836 146.361 335.204 140.866L335.206 140.409C336 130.237 334.896 120.004 331.956 110.26C328.562 98.4686 323.34 86.9308 323.633 74.3882C323.678 68.834 325.124 63.3867 327.832 58.5799C330.407 54.3279 333.949 50.7839 338.152 48.2537C343.258 45.157 349.065 43.4929 354.992 43.4277C358.2 43.3738 361.402 43.7502 364.516 44.5476C366.024 44.9484 367.498 45.4738 368.924 46.1186C368.681 45.1776 368.495 44.2223 368.365 43.2579C368.217 42.0708 368.132 40.8763 368.111 39.6798C368.142 38.4792 368.301 37.2858 368.587 36.1212C368.588 35.9252 368.889 35.9919 368.904 36.1226C368.899 37.2986 369.085 38.4754 369.127 39.6516C369.177 40.8565 369.299 42.057 369.492 43.2465C369.632 44.0474 369.819 44.8812 369.99 45.6333C370.087 45.3887 370.183 45.1442 370.295 44.8997C370.452 43.1222 370.866 41.3787 371.525 39.7274C372.439 37.4846 373.645 35.38 375.11 33.4713C378.293 29.5007 382.323 26.3382 386.887 24.2295C396.742 19.8918 407.562 18.4087 418.176 19.9407C428.249 21.0496 437.762 25.2582 445.471 32.0166C446.673 33.0998 447.795 34.2807 448.886 35.4779C455.691 40.1111 461.555 46.0615 466.152 52.9976C471.152 60.6471 474.577 69.2534 479.179 77.1462C479.495 77.703 479.826 78.2434 480.157 78.7839C485.579 84.1142 491.871 88.4211 498.746 91.5074C506.67 95.1519 515.367 96.6111 522.923 100.924C529.501 104.631 534.835 110.296 538.225 117.177C540.312 121.382 541.424 126.027 541.472 130.749C541.52 135.47 540.504 140.139 538.503 144.389C538.436 144.529 538.32 144.638 538.179 144.692C538.037 144.746 537.88 144.742 537.741 144.68C537.602 144.618 537.492 144.504 537.433 144.361C537.374 144.218 537.371 144.056 537.425 143.911C540.085 135.696 539.608 126.748 536.09 118.883C532.853 112.001 527.557 106.367 520.978 102.81C517.094 100.845 513.046 99.2474 508.881 98.0362C504.883 96.7591 500.965 95.2309 497.149 93.4604C493.329 91.6438 489.671 89.4853 486.219 87.0097C489.536 90.863 493.668 93.8819 498.298 95.8337C503.355 97.8323 508.88 98.1996 514.002 100.019C518.715 101.688 522.949 104.54 526.32 108.317C529.691 112.093 532.094 116.675 533.31 121.647C534.525 126.619 534.516 131.825 533.284 136.793C532.051 141.761 529.633 146.335 526.249 150.101C533.406 148.817 540.767 150.442 546.779 154.634C547.049 154.733 547.319 154.8 547.588 154.915C549.535 155.736 551.354 156.844 552.989 158.205C556.352 160.939 558.982 164.509 560.63 168.578C562.291 172.929 562.919 177.624 562.462 182.275C562.005 186.926 560.477 191.398 558.003 195.32L557.86 195.532C564.607 197.038 570.839 200.376 575.906 205.199C585.634 214.029 592.086 227.712 589.662 240.686C589.201 248.034 586.421 255.551 580.73 260.246C577.431 263.008 572.543 265.649 568.146 265.303C567.961 265.298 567.782 265.231 567.637 265.113C567.492 264.995 567.388 264.832 567.341 264.648C567.293 264.464 567.305 264.269 567.374 264.093C567.443 263.916 567.566 263.767 567.724 263.668C569.262 262.855 570.858 262.163 572.498 261.598C574.164 260.934 575.763 260.104 577.273 259.12C579.055 257.891 580.62 256.357 581.899 254.584C575.296 260.827 565.723 263.659 557.737 259.606C558.687 271.044 552.064 282.023 542.935 288.533C533.807 295.042 522.551 297.59 511.478 298.505C494.463 299.9 476.829 297.568 461.778 289.286C446.727 281.005 434.579 266.301 431.494 249.023L423.987 258.79C396.477 281.225 358.657 286.269 323.836 281.216C312.186 279.531 299.829 276.21 292.231 266.998C282.501 254.787 285.229 233.925 298.021 225.014ZM559.484 183.599C560.125 180.209 560.086 176.721 559.369 173.347C558.652 169.974 557.272 166.786 555.314 163.981C557.886 168.837 559.054 174.349 558.681 179.865C558.307 185.382 556.409 190.675 553.208 195.119C553.7 195.122 554.177 195.124 554.669 195.126C556.999 191.648 558.636 187.731 559.484 183.599ZM391.196 26.6494C405.575 21.9761 421.074 22.5054 435.117 28.1491C431.415 26.1539 427.476 24.6597 423.4 23.704C413.485 21.385 403.159 21.6766 393.381 24.552C387.922 26.097 382.907 28.9778 378.765 32.9483C377.141 34.5594 375.695 36.3497 374.453 38.2867C378.853 32.858 384.658 28.8229 391.196 26.6494ZM369.169 48.145L369.026 48.1444L369.153 48.1449L369.169 48.145ZM362.584 46.8094C360.486 46.4391 358.363 46.2387 356.234 46.2098C350.976 46.1228 345.775 47.3558 341.084 49.8019C336.846 52.0232 333.237 55.3323 330.607 59.4087C327.81 64.0796 326.36 69.4711 326.426 74.9558C326.455 79.9901 327.166 84.9955 328.536 89.8283C327.817 80.0252 329.02 70.0836 334.169 61.956C340.47 52.1021 351.598 45.9608 362.664 46.8098L362.584 46.8094Z" fill="#373F54"/>
<path d="M523.518 193.356C524.204 192.591 524.906 191.728 525.561 190.98C527.927 188.146 529.138 184.483 528.941 180.754C528.639 177.1 527.032 173.692 524.43 171.186C521.828 168.68 518.415 167.254 514.85 167.184L514.453 167.183L514.457 166.399L514.822 166.4C517.757 166.028 520.733 166.562 523.371 167.935C526.01 169.307 528.191 171.457 529.637 174.109C531.163 176.97 531.832 180.23 531.56 183.481C531.289 186.732 530.089 189.828 528.112 192.379C527.281 193.486 526.355 194.528 525.462 195.52C524.359 196.7 523.329 197.95 522.38 199.263L523.062 199.413C524.792 199.813 526.584 200.229 528.345 200.792C530.862 201.575 533.316 202.558 535.685 203.732C540.178 205.863 544.115 209.06 547.174 213.059C550.08 216.819 551.731 221.443 551.88 226.245C551.891 230.823 550.456 235.282 547.79 238.95C544.776 243.129 540.52 246.183 535.666 247.651L535.428 247.65C535.261 247.649 535.098 247.595 534.962 247.495C534.826 247.395 534.723 247.254 534.668 247.092C534.586 246.9 534.578 246.683 534.647 246.486C534.716 246.288 534.856 246.126 535.038 246.032C538.659 244.149 541.832 241.47 544.332 238.184C546.844 235.064 548.348 231.217 548.636 227.178C549.026 217.918 541.911 210.701 535.13 207.028C532.773 205.767 530.318 204.708 527.791 203.86C525.46 203.066 522.558 202.073 519.861 201.408C519.671 201.361 519.494 201.27 519.343 201.142C519.192 201.014 519.072 200.852 518.991 200.669C518.894 200.466 518.844 200.242 518.845 200.015C518.846 199.789 518.898 199.565 518.997 199.363C520.26 197.178 521.778 195.161 523.518 193.356Z" fill="#DA81D1"/>
<path d="M521.18 255.444L521.305 255.82C521.989 257.823 523.137 259.624 524.65 261.068C526.163 262.512 527.995 263.555 529.988 264.107C532.028 264.581 534.146 264.579 536.185 264.099C538.224 263.618 540.132 262.673 541.768 261.333C541.882 261.229 542.03 261.172 542.182 261.172C542.334 261.173 542.481 261.231 542.594 261.336C542.703 261.463 542.763 261.626 542.762 261.794C542.761 261.963 542.7 262.126 542.59 262.251C541.395 263.521 539.959 264.526 538.372 265.205C536.785 265.883 535.08 266.221 533.362 266.196C532.011 266.19 530.669 265.981 529.378 265.574C527.243 264.847 525.311 263.599 523.748 261.936C522.184 260.274 521.035 258.247 520.399 256.029L520.401 255.571L520.719 255.589L521.18 255.444Z" fill="#DA81D1"/>
<path d="M536.558 200.256C536.449 200.224 536.349 200.17 536.261 200.097C536.174 200.024 536.101 199.934 536.049 199.831C535.996 199.729 535.963 199.617 535.953 199.502C535.943 199.386 535.956 199.27 535.991 199.16C536.019 199.049 536.068 198.946 536.136 198.856C536.203 198.765 536.288 198.69 536.384 198.634C536.481 198.578 536.588 198.543 536.698 198.53C536.808 198.517 536.919 198.527 537.026 198.56C543.014 200.118 548.376 203.569 552.355 208.427C556.904 214.196 559.145 220.952 558.531 226.976C558.509 227.147 558.43 227.305 558.308 227.424C558.187 227.542 558.029 227.614 557.861 227.626C557.713 227.624 557.57 227.569 557.458 227.47C557.345 227.371 557.27 227.235 557.244 227.085C556.189 221.543 554.565 215.182 550.474 210.02C546.876 205.422 542.033 202.024 536.558 200.256Z" fill="#DA81D1"/>
<path d="M508.454 155.429C507.864 155.965 507.274 156.486 506.716 157.055C504.897 158.843 502.278 162.327 505.089 165.77C506.34 167.198 507.79 168.426 509.393 169.414C511.112 170.706 513.107 171.555 515.211 171.89C515.294 171.896 515.374 171.92 515.448 171.959C515.522 171.998 515.587 172.053 515.64 172.118C515.693 172.184 515.733 172.26 515.757 172.342C515.781 172.424 515.788 172.51 515.779 172.595C515.77 172.749 515.704 172.894 515.595 173C515.485 173.106 515.34 173.165 515.189 173.164C511.869 172.744 508.728 171.378 506.122 169.22C502.956 166.969 501.538 164.447 501.772 161.704C502.024 158.569 504.164 155.998 506.429 153.673L506.796 153.315C508.901 151.184 511.278 148.761 510.593 145.639C510.115 143.78 508.993 142.166 507.437 141.1C506.773 140.637 506.08 140.219 505.362 139.85C504.286 139.331 503.284 138.661 502.385 137.861C502.197 137.657 502.072 137.402 502.025 137.125C501.978 136.849 502.012 136.564 502.122 136.308C502.225 136.06 502.399 135.849 502.621 135.704C502.843 135.56 503.102 135.487 503.364 135.497C506.785 136.048 509.854 137.97 511.901 140.842C512.911 142.107 513.559 143.637 513.77 145.259C513.982 146.881 513.75 148.533 513.099 150.027C511.944 152.148 510.36 153.99 508.454 155.429Z" fill="#DA81D1"/>
<path d="M502.731 203.619C503.129 203.441 503.527 203.28 503.893 203.069C505.09 202.447 506.235 201.725 507.317 200.912C509.464 199.292 511.304 197.279 512.743 194.974C514.445 192.464 515.546 189.575 515.956 186.544C516.223 183.736 515.444 180.237 512.417 178.803C512.334 178.766 512.26 178.712 512.198 178.644C512.137 178.576 512.089 178.496 512.058 178.409C512.027 178.322 512.014 178.229 512.019 178.137C512.024 178.044 512.047 177.954 512.087 177.87C512.152 177.698 512.281 177.559 512.444 177.484C512.608 177.408 512.794 177.402 512.963 177.466C514.384 178.059 515.632 179.019 516.587 180.254C517.541 181.488 518.17 182.955 518.411 184.513C518.857 188.27 518.068 192.072 516.172 195.316C514.625 198.248 512.518 200.828 509.976 202.9C508.733 203.947 507.382 204.851 505.947 205.593L505.788 205.593C504.508 206.362 503.08 206.835 501.605 206.979L501.192 206.977C500.944 206.944 500.711 206.838 500.52 206.672C500.33 206.506 500.189 206.287 500.116 206.042C500.056 205.841 500.056 205.626 500.117 205.425C500.177 205.224 500.295 205.047 500.455 204.916C501.153 204.38 501.919 203.944 502.731 203.619Z" fill="#DA81D1"/>
<path d="M462.761 112.517C464.304 111.909 465.902 111.461 467.532 111.182C470.894 110.595 474.326 110.571 477.696 111.113C481.056 111.588 484.29 112.746 487.21 114.519C488.619 115.352 489.926 116.356 491.103 117.509L491.293 117.706C492.477 118.709 493.349 120.047 493.801 121.555C493.824 121.692 493.793 121.832 493.715 121.945C493.637 122.058 493.519 122.134 493.386 122.158L493.275 122.157C493.162 122.155 493.053 122.113 492.967 122.038C492.88 121.964 492.821 121.861 492.8 121.747C492.551 120.57 491.125 119.828 489.873 119.186L488.907 118.675C487.694 117.969 486.433 117.352 485.135 116.829C482.388 115.638 479.486 114.866 476.522 114.537C473.65 114.209 470.747 114.333 467.912 114.908C466.495 115.206 465.098 115.598 463.73 116.082L462.664 116.486C461.648 116.932 460.579 117.234 459.484 117.386C459.257 117.391 459.032 117.33 458.836 117.211C458.64 117.092 458.481 116.919 458.375 116.712C458.256 116.519 458.193 116.295 458.194 116.066C458.195 115.837 458.26 115.613 458.381 115.421C459.55 114.054 461.067 113.048 462.761 112.517Z" fill="#DA81D1"/>
<path d="M328.627 202.772C330.221 201.424 332.085 200.207 333.805 199.039C335.207 198.081 336.64 197.091 338.011 196.052C341.45 193.601 344.058 190.106 345.471 186.056C346.791 182.135 346.899 177.891 345.779 173.906C345.742 173.792 345.729 173.672 345.738 173.552C345.747 173.433 345.78 173.317 345.834 173.21C345.887 173.104 345.961 173.01 346.051 172.933C346.141 172.857 346.244 172.799 346.356 172.765C346.472 172.722 346.597 172.704 346.72 172.711C346.844 172.719 346.965 172.752 347.076 172.809C347.187 172.866 347.286 172.946 347.366 173.043C347.447 173.14 347.507 173.253 347.544 173.374C348.578 176.442 348.925 179.711 348.559 182.936C348.193 186.161 347.123 189.26 345.429 192.001C342.79 196.22 338.792 198.995 334.921 201.755C333.121 202.988 331.273 204.287 329.599 205.684C325.168 209.405 319.805 215.441 319.469 223.23C319.249 226.735 320.374 230.188 322.603 232.848C324.768 235.295 327.599 237.015 330.728 237.784C333.901 238.614 338.425 239.091 341.85 236.657C343.362 235.599 344.483 234.048 345.033 232.255C345.583 230.461 345.529 228.53 344.88 226.772C344.819 226.626 344.816 226.462 344.87 226.313C344.924 226.165 345.031 226.043 345.169 225.973C345.302 225.904 345.456 225.891 345.599 225.938C345.741 225.984 345.86 226.086 345.93 226.221C346.598 227.586 346.904 229.108 346.817 230.634C346.729 232.159 346.251 233.634 345.431 234.908C344.535 236.315 343.365 237.515 341.994 238.431C340.622 239.347 339.081 239.96 337.467 240.231C336.424 240.469 335.358 240.59 334.289 240.592C331.36 240.546 328.488 239.756 325.929 238.291C323.369 236.827 321.202 234.733 319.62 232.198C316.152 226.221 316.729 217.943 321.094 211.135C323.145 207.944 325.69 205.119 328.627 202.772Z" fill="#DA81D1"/>
<path d="M322.49 251.255L323.602 251.26C326.923 251.416 330.251 251.168 333.515 250.519C337.16 249.683 340.58 248.025 343.526 245.663C346.132 243.472 348.206 240.684 349.581 237.524C351.049 234.307 351.662 230.748 351.357 227.209C351.346 227.121 351.353 227.031 351.376 226.946C351.399 226.86 351.439 226.78 351.492 226.711C351.546 226.641 351.612 226.583 351.688 226.54C351.763 226.497 351.846 226.47 351.932 226.46C352.107 226.421 352.289 226.455 352.44 226.553C352.591 226.652 352.699 226.807 352.74 226.986C353.189 228.85 353.363 230.772 353.255 232.689C353.087 234.631 352.645 236.539 351.943 238.351C350.541 241.978 348.278 245.185 345.359 247.681C342.211 250.314 338.512 252.159 334.552 253.072C332.214 253.64 329.82 253.931 327.417 253.939C325.668 253.941 323.926 253.725 322.227 253.295C322.003 253.222 321.812 253.069 321.687 252.865C321.562 252.661 321.51 252.418 321.541 252.179C321.573 251.939 321.685 251.719 321.858 251.556C322.032 251.393 322.255 251.298 322.49 251.288L322.49 251.255Z" fill="#DA81D1"/>
<path d="M311.3 238.972C310.184 237.74 309.214 236.376 308.412 234.909C306.939 232.263 305.965 229.355 305.543 226.338C305.158 223.274 305.414 220.16 306.295 217.206C307.177 214.252 308.662 211.525 310.653 209.21C312.832 206.693 315.563 204.746 318.618 203.529C318.802 203.453 319.008 203.453 319.191 203.53C319.375 203.607 319.522 203.755 319.601 203.941C319.697 204.135 319.714 204.36 319.651 204.567C319.588 204.774 319.449 204.948 319.263 205.051C316.305 206.696 313.756 209.022 311.816 211.846C309.875 214.671 308.595 217.918 308.074 221.335C307.643 224.76 308.048 228.242 309.253 231.466C310.475 234.861 312.679 237.789 315.568 239.857L315.98 240.071L315.98 240.169C316.124 240.379 316.209 240.626 316.225 240.883C316.24 241.14 316.186 241.396 316.069 241.623C316.011 241.757 315.929 241.878 315.825 241.979C315.722 242.081 315.6 242.16 315.467 242.212C315.334 242.265 315.192 242.29 315.05 242.286C314.907 242.282 314.767 242.248 314.637 242.188L314.494 242.188L314.367 242.073C312.49 241.48 310.468 241.598 308.668 242.405C306.867 243.212 305.406 244.654 304.549 246.472C301.891 251.589 304.499 257.987 306.294 261.343C306.418 261.556 306.454 261.811 306.397 262.052C306.339 262.293 306.192 262.501 305.987 262.632C305.822 262.744 305.628 262.8 305.43 262.793C305.272 262.794 305.116 262.755 304.975 262.68C304.835 262.606 304.714 262.498 304.622 262.365C301.465 257.957 299.068 250.695 302.54 244.699C303.47 243.113 304.745 241.77 306.265 240.776C307.785 239.783 309.509 239.165 311.3 238.972Z" fill="#DA81D1"/>
<path d="M293.63 252.075C294.42 245.693 298.334 240.5 301.223 237.164C301.285 237.087 301.361 237.024 301.447 236.978C301.533 236.932 301.627 236.905 301.724 236.898C301.82 236.891 301.917 236.904 302.009 236.936C302.1 236.969 302.184 237.02 302.256 237.087C302.419 237.23 302.521 237.433 302.541 237.653C302.56 237.873 302.496 238.091 302.362 238.263C298.875 242.128 296.5 246.913 295.504 252.084C295.115 254.387 295.261 256.752 295.93 258.986C296.6 261.22 297.773 263.26 299.354 264.938C299.474 265.072 299.541 265.247 299.54 265.429C299.539 265.611 299.471 265.786 299.35 265.918C299.279 265.997 299.192 266.059 299.097 266.1C299.001 266.142 298.897 266.163 298.793 266.161C298.63 266.163 298.473 266.105 298.349 265.996C296.474 264.282 295.057 262.103 294.231 259.667C293.405 257.23 293.198 254.617 293.63 252.075Z" fill="#DA81D1"/>
<path d="M420.719 171.164L438.414 213.937L458.825 224.072C458.825 224.072 438.867 251.669 413.552 262.648C388.236 273.626 372.354 241.233 372.354 241.233L390.172 223.345L376.63 175.429L420.719 171.164Z" fill="#EB9C7B"/>
<mask id="mask0_34_2" style="mask-type:luminance" maskUnits="userSpaceOnUse" x="372" y="171" width="87" height="94">
<path d="M420.719 171.164L438.414 213.937L458.825 224.072C458.825 224.072 438.867 251.669 413.552 262.647C388.236 273.626 372.354 241.233 372.354 241.233L390.172 223.345L376.63 175.429L420.719 171.164Z" fill="white"/>
</mask>
<g mask="url(#mask0_34_2)">
<path d="M361.798 214.874C363.195 214.88 364.593 214.886 365.975 214.811C365.548 214.376 365.216 213.853 365 213.276C364.785 212.699 364.69 212.082 364.723 211.465C364.755 210.848 364.915 210.245 365.19 209.696C365.466 209.147 365.851 208.664 366.321 208.279C365.954 207.803 365.705 207.241 365.598 206.643C365.454 206.039 365.433 205.411 365.536 204.799C365.64 204.186 365.867 203.603 366.201 203.085C366.201 203.003 366.202 202.938 366.202 202.856C366.004 201.972 366.058 201.048 366.357 200.194C364.784 196.79 366.957 193.664 370.044 192.256C374.818 190.196 379.705 188.423 384.679 186.947C393.966 184.224 403.405 182.083 412.944 180.538C419.307 178.247 425.748 176.097 432.268 174.09C432.593 173.989 432.93 173.936 433.269 173.931C433.277 173.677 433.246 173.423 433.177 173.179C432.237 170.235 436.852 168.165 438.11 171.061C438.623 172.407 438.841 173.853 438.746 175.296C438.652 176.738 438.249 178.141 437.565 179.405C437.418 179.999 437.15 180.554 436.78 181.035L436.251 182.061L435.915 182.648C435.847 183.297 435.645 183.924 435.322 184.486C434.999 185.048 434.563 185.532 434.043 185.906C433.115 187.421 432.155 188.903 431.149 190.353C429.237 193.098 427.173 195.729 424.968 198.231C418.517 205.595 410.916 211.8 402.478 216.588C396.663 219.992 390.429 222.574 383.943 224.265C375.867 226.206 367.37 226.136 359.892 222.15C356.421 220.404 358.082 214.776 361.798 214.874Z" fill="#E6835A"/>
</g>
<path d="M342.188 315.237C335.389 344.607 333.611 373.296 329.525 396.014C303.416 403.07 256.011 435.479 256.011 435.479L273.403 471.08C273.403 471.08 332.244 452.996 367.595 431.543C395.126 400.631 392.062 349.984 387.179 329.841L342.188 315.237Z" fill="#E6835A"/>
<path d="M388.573 384.889L372.698 441.251L435.788 471.712L521.241 440.238C527.182 422.018 529.286 402.707 527.414 383.589L388.573 384.889Z" fill="#EB9C7B"/>
<path d="M382.281 407.222C375.769 418.117 371.49 430.265 369.705 442.92C369.705 442.92 345.952 448.94 336.08 461.882C336.08 461.882 164.728 387.629 121.059 419.091C77.3897 450.553 127.454 528.698 127.454 528.698C127.454 528.698 167.196 519.988 223.983 531.899C223.983 531.899 256.2 554.907 333.803 571.582C346.988 574.433 338.018 617.039 355.2 621.198C464.506 647.713 510.999 616.983 530.908 575.192C554.951 524.926 522.965 434.594 522.965 434.594C522.965 434.594 431.737 439.387 382.281 407.222Z" fill="#DA81D1"/>
<path d="M518.186 470.555C514.833 472.361 511.191 473.529 507.435 474.003C503.663 474.408 499.852 474.12 496.179 473.153C489.4 471.359 483.35 467.398 478.902 461.84C477.681 460.324 476.623 458.676 475.747 456.926C475.356 456.108 475.056 455.246 474.853 454.358C474.54 453.442 474.357 452.484 474.31 451.514C474.315 451.412 474.348 451.314 474.405 451.23C474.463 451.147 474.542 451.082 474.633 451.043C474.725 451.004 474.825 450.993 474.923 451.01C475.021 451.028 475.111 451.073 475.185 451.142C475.62 451.644 476.001 452.194 476.321 452.78C476.794 453.501 477.395 454.124 477.9 454.845C478.768 456.09 479.604 457.335 480.52 458.531C482.402 461.009 484.598 463.216 487.051 465.093C492.497 469.118 499.058 471.231 505.764 471.121C509.765 471.137 513.739 470.442 517.51 469.066C518.384 468.726 518.982 470.199 518.153 470.702L518.186 470.555Z" fill="#7B42A9"/>
<path d="M506.749 470.962C506.053 469.098 505.53 467.171 505.187 465.206C504.862 463.261 504.839 461.219 504.419 459.29L506.003 460.211C504.188 460.758 502.314 461.068 500.424 461.134C498.518 461.322 496.611 461.46 494.689 461.55C492.767 461.64 490.877 461.631 488.972 461.525C487.067 461.418 485.303 461.607 483.895 460.392C483.793 460.284 483.716 460.154 483.67 460.011C483.623 459.868 483.609 459.717 483.628 459.567C483.647 459.418 483.699 459.275 483.779 459.149C483.86 459.024 483.967 458.918 484.092 458.841C485.589 457.9 487.525 458.317 489.192 458.357C490.86 458.397 492.877 458.373 494.703 458.381C496.529 458.389 498.229 458.25 499.993 458.111C501.873 457.796 503.775 457.635 505.68 457.629C506.017 457.631 506.34 457.77 506.577 458.016C506.814 458.262 506.947 458.595 506.945 458.942C506.9 460.939 506.997 462.938 507.237 464.921C507.371 466.914 507.378 468.874 507.353 470.866C507.338 470.931 507.302 470.988 507.252 471.028C507.201 471.069 507.139 471.091 507.074 471.09C507.01 471.09 506.948 471.068 506.898 471.027C506.848 470.986 506.812 470.928 506.798 470.864L506.749 470.962Z" fill="#7B42A9"/>
<path d="M417.967 432.352C419.44 432.242 420.903 432.677 422.091 433.579C423.338 434.528 424.332 435.785 424.981 437.234C426.444 440.507 425.995 445.193 422.399 446.728C420.791 447.269 419.06 447.284 417.443 446.771C415.827 446.258 414.406 445.242 413.375 443.863C411.163 441.126 410.228 437.038 412.83 434.175C413.971 432.944 415.523 432.203 417.174 432.104C418.047 432.056 418.914 432.276 419.665 432.735C420.154 432.971 420.553 433.368 420.798 433.863C421.043 434.358 421.121 434.923 421.019 435.469C420.939 435.745 420.775 435.987 420.551 436.159C420.327 436.332 420.056 436.426 419.776 436.427C419.471 436.451 419.164 436.416 418.871 436.325C418.69 436.273 418.514 436.201 418.348 436.11C418.221 436.11 417.92 435.978 418.348 436.11L418.062 436.027C417.729 435.912 418.062 436.125 418.142 436.028C418.222 435.93 417.554 436.025 417.427 436.025L417.046 436.023L416.378 436.216L416.473 436.216C416.473 436.216 416.171 436.362 416.123 436.395L415.789 436.605C416.044 436.345 415.47 436.784 415.789 436.605C415.534 436.866 415.486 436.914 415.326 437.077C415.518 436.719 415.167 437.24 415.326 437.077L415.134 437.403C415.006 437.598 415.039 437.402 415.135 437.321C415.23 437.24 415.022 437.647 415.006 437.729C414.964 437.862 414.932 437.999 414.909 438.137C414.908 438.267 414.908 438.235 414.909 438.039C414.901 438.148 414.901 438.257 414.908 438.366L414.905 438.855C414.95 439.155 415.018 439.45 415.108 439.738L415.249 440.131C415.092 439.755 415.249 440.262 415.248 440.294C415.407 440.598 415.58 440.893 415.769 441.179C416.037 441.637 415.642 441.031 415.768 441.277L416.037 441.621C416.226 441.834 416.432 442.031 416.638 442.228C416.753 442.35 416.881 442.46 417.017 442.556L417.176 442.671C417.445 442.852 417.73 443 418.015 443.165C418.3 443.329 417.825 443.164 418.11 443.165L418.491 443.314L419.284 443.53C419.284 443.53 419.856 443.532 419.443 443.53L420.221 443.534C420.443 443.535 420.427 443.535 420.221 443.534L420.523 443.535L420.809 443.536C421.238 443.44 420.586 443.699 420.952 443.537L421.35 443.294L421.717 442.92C421.541 443.131 421.717 442.838 421.717 442.773C421.791 442.653 421.855 442.528 421.909 442.398C421.797 442.659 422.022 442.055 422.038 441.99C422.303 441.013 422.308 439.981 422.051 439.001C422.017 438.868 421.975 438.737 421.926 438.609C421.926 438.609 421.722 438.02 421.817 438.233C421.691 437.938 421.549 437.66 421.392 437.365C421.111 436.87 420.777 436.408 420.397 435.989C419.576 435.024 418.602 434.208 417.517 433.575C417.418 433.507 417.341 433.409 417.299 433.295C417.256 433.18 417.25 433.054 417.28 432.936C417.31 432.817 417.376 432.711 417.468 432.632C417.56 432.554 417.673 432.507 417.792 432.498L417.967 432.352Z" fill="#7B42A9"/>
<path d="M409.105 428.867C409.03 431.663 408.48 434.424 407.481 437.026C407.062 438.364 406.628 439.701 406.209 441.055C405.753 442.271 405.552 443.573 405.62 444.874C405.835 446.509 407.529 447.725 408.781 448.416C410.365 449.289 412.523 449.674 413.787 451.133C413.914 451.249 414.007 451.398 414.057 451.564C414.106 451.73 414.11 451.907 414.068 452.075C414.027 452.244 413.941 452.397 413.82 452.519C413.699 452.64 413.548 452.726 413.383 452.765C411.331 453.638 408.62 452.548 406.861 451.527C405.846 451.026 404.956 450.293 404.258 449.384C403.56 448.475 403.074 447.415 402.835 446.283C402.181 443.177 403.433 440.275 404.462 437.372C405.24 434.253 406.549 431.301 408.328 428.651C408.599 428.309 409.106 428.654 409.12 428.981L409.105 428.867Z" fill="#7B42A9"/>
<path d="M408.687 451.797C408.662 452.659 408.557 453.517 408.374 454.36C408.179 455.241 407.905 456.122 407.631 456.986C407.116 458.617 406.617 460.248 406.165 461.879C405.713 463.511 405.309 465.142 404.762 466.773C404.488 467.589 404.151 468.404 403.878 469.17C403.72 469.986 403.386 470.756 402.899 471.42C402.836 471.483 402.758 471.527 402.673 471.55C402.588 471.572 402.499 471.571 402.415 471.548C402.33 471.525 402.253 471.479 402.19 471.416C402.128 471.353 402.082 471.274 402.058 471.188C401.879 470.381 401.883 469.543 402.069 468.738C402.168 467.84 402.204 466.958 402.319 466.077C402.597 464.419 402.987 462.784 403.484 461.182C403.952 459.55 404.435 457.919 404.966 456.288C405.24 455.489 405.545 454.658 405.882 453.908C406.268 453.045 406.757 452.235 407.338 451.497C407.721 450.976 408.706 451.062 408.655 451.862L408.687 451.797Z" fill="#7B42A9"/>
<path d="M388.162 424.267C387.664 424.905 387.131 425.514 386.566 426.089L384.811 427.715C383.599 428.853 382.34 429.925 381.129 430.965C379.917 432.005 378.753 433.143 377.525 434.216C376.256 435.27 374.89 436.194 373.447 436.975C372.874 437.299 372.099 436.609 372.499 435.991C373.383 434.605 374.411 433.323 375.565 432.166C376.761 431.028 378.02 429.939 379.264 428.915C380.507 427.892 381.703 426.803 382.962 425.796C383.631 425.26 384.316 424.74 385.002 424.171C385.687 423.686 386.405 423.253 387.151 422.874C387.324 422.779 387.524 422.749 387.715 422.791C387.906 422.833 388.077 422.944 388.197 423.103C388.316 423.263 388.377 423.461 388.367 423.662C388.358 423.863 388.28 424.054 388.146 424.201L388.162 424.267Z" fill="#7B42A9"/>
<path d="M217.698 509.414L240.535 556.423L182.697 581.24C182.697 581.24 146.264 559.683 126.505 520.675C126.505 520.675 171.819 505.096 217.698 509.414Z" fill="#EB9C7B"/>
<path d="M447.758 136.64C447.758 136.64 450.972 128.178 456.063 126.142C463.827 123.073 472.084 123.338 476.98 125.94C483.809 129.58 486.451 139.048 483.655 146.5C480.859 153.952 473.833 158.952 466.329 160.699C460.343 162.157 454.046 161.323 448.616 158.351C448.616 158.351 422.309 199.754 382.557 196.346C342.805 192.937 317.518 161.286 335.569 108.414C352.124 59.879 374.02 50.061 394.908 52.8478C415.796 55.6345 432.971 64.7096 440.208 87.5752C447.445 110.441 431.622 133.123 435.651 138.041C439.963 143.303 447.758 136.64 447.758 136.64Z" fill="#EB9C7B"/>
<mask id="mask1_34_2" style="mask-type:luminance" maskUnits="userSpaceOnUse" x="329" y="52" width="156" height="145">
<path d="M447.758 136.64C447.758 136.64 450.972 128.178 456.063 126.142C463.827 123.073 472.084 123.338 476.98 125.94C483.809 129.58 486.451 139.048 483.655 146.5C480.859 153.952 473.833 158.952 466.329 160.699C460.343 162.157 454.046 161.323 448.616 158.351C448.616 158.351 422.309 199.754 382.557 196.346C342.805 192.937 317.518 161.286 335.569 108.414C352.124 59.879 374.02 50.061 394.908 52.8478C415.796 55.6345 432.971 64.7096 440.208 87.5752C447.445 110.441 431.622 133.123 435.651 138.041C439.963 143.303 447.758 136.64 447.758 136.64Z" fill="white"/>
</mask>
<g mask="url(#mask1_34_2)">
<g style="mix-blend-mode:multiply" opacity="0.3">
<path d="M325.618 114.103C327.276 113.261 329.028 112.633 330.836 112.231C330.789 111.937 330.83 111.634 330.953 111.364C331.076 111.094 331.275 110.868 331.525 110.715C332.368 110.107 333.329 109.694 334.341 109.503C335.646 109.315 336.964 109.234 338.281 109.259C340.669 109.269 343.053 109.476 345.409 109.878C349.743 110.321 353.86 112.04 357.267 114.83C358.932 116.295 360.169 118.207 360.838 120.353C361.507 122.499 361.583 124.794 361.057 126.982C360.393 128.956 359.328 130.761 357.933 132.279C356.538 133.796 354.845 134.991 352.966 135.783C349.08 137.535 344.864 138.376 340.623 138.244C336.382 138.113 332.224 137.012 328.448 135.022C324.725 133.078 320.881 129.697 319.979 125.299C319.561 123.053 319.891 120.728 320.913 118.697C321.936 116.666 323.593 115.048 325.618 114.103Z" fill="#DA81D1"/>
</g>
<g style="mix-blend-mode:multiply" opacity="0.3">
<path d="M387.977 126.676C388.787 125.933 389.713 125.335 390.716 124.908C390.676 124.803 390.677 124.686 390.718 124.581C392.02 122.852 393.703 121.466 395.627 120.536C397.903 119.592 400.369 119.233 402.81 119.489C407.481 119.608 412.065 120.817 416.214 123.027C418.508 124.171 420.515 125.842 422.081 127.91C423.647 129.979 424.73 132.39 425.246 134.957C425.577 137.416 425.227 139.92 424.237 142.184C423.247 144.447 421.656 146.378 419.647 147.754C415.416 150.572 410.298 151.619 405.341 150.68C400.315 150.064 395.462 148.416 391.069 145.832C388.994 144.579 387.294 142.764 386.155 140.584C385.016 138.404 384.482 135.943 384.612 133.472C384.825 130.841 386.033 128.401 387.977 126.676Z" fill="#DA81D1"/>
</g>
</g>
<path d="M461.78 147.939L462.195 147.353C462.394 147.107 462.619 146.883 462.865 146.686L464.125 145.581C464.922 144.863 465.639 144.055 466.263 143.173C466.905 142.273 467.483 141.326 467.991 140.339C468.359 139.638 468.728 138.938 469.08 138.221C468.523 137.705 467.912 137.253 467.26 136.873C466.143 136.158 464.897 135.68 463.597 135.469C463.535 135.453 463.48 135.416 463.44 135.364C463.401 135.312 463.379 135.248 463.38 135.182C463.38 135.116 463.402 135.052 463.442 135C463.482 134.949 463.537 134.912 463.6 134.897C465.077 134.35 466.687 134.305 468.19 134.77C469.708 135.307 471.04 136.289 472.021 137.596C473.074 138.976 473.732 140.631 473.922 142.374C474.008 143.238 473.951 144.11 473.751 144.954C473.606 145.574 473.156 146.764 472.535 147.056C472.393 147.134 472.226 147.154 472.07 147.111C471.914 147.068 471.78 146.965 471.695 146.823C471.559 146.511 471.516 146.164 471.572 145.826C471.573 145.483 471.575 145.14 471.576 144.797C471.582 144.159 471.548 143.52 471.474 142.886C471.328 141.575 470.858 140.324 470.108 139.254C470.041 139.881 469.91 140.499 469.719 141.098C469.309 142.263 468.737 143.361 468.021 144.357C467.317 145.356 466.515 146.278 465.627 147.107C465.184 147.544 464.691 147.926 464.161 148.244C463.896 148.416 463.613 148.558 463.317 148.665C463.018 148.73 462.715 148.777 462.411 148.808C462.3 148.845 462.181 148.846 462.07 148.811C461.958 148.775 461.861 148.704 461.791 148.608C461.721 148.512 461.683 148.395 461.681 148.275C461.678 148.155 461.713 148.038 461.78 147.939Z" fill="#E6835A"/>
<path d="M464.637 155.498C464.917 155.857 465.165 156.24 465.378 156.644C465.553 157.085 465.674 157.546 465.737 158.018C465.939 159.053 465.934 160.12 465.724 161.154C465.537 162.111 465.211 163.035 464.759 163.894C464.529 164.378 464.208 164.81 463.814 165.165C463.419 165.519 462.96 165.789 462.463 165.958C462.332 165.99 462.195 165.987 462.066 165.948C461.936 165.91 461.819 165.837 461.725 165.738C461.631 165.639 461.563 165.516 461.529 165.382C461.495 165.248 461.495 165.108 461.53 164.974C461.95 163.342 462.924 162.105 463.345 160.457C463.521 159.721 463.656 158.974 463.751 158.222C463.753 157.764 463.755 157.307 463.757 156.85C463.821 156.466 463.859 156.079 463.874 155.69C463.879 155.604 463.911 155.522 463.964 155.456C464.018 155.39 464.09 155.342 464.171 155.321C464.253 155.3 464.338 155.305 464.416 155.337C464.494 155.369 464.56 155.425 464.605 155.498L464.637 155.498Z" fill="white"/>
<path d="M458.261 157.201C458.848 158.485 459.133 159.895 459.091 161.313C459.048 162.732 458.681 164.121 458.019 165.367C457.689 166.084 457.124 166.66 456.423 166.993C456.232 167.076 456.02 167.095 455.818 167.048C455.616 167 455.433 166.887 455.297 166.727C455.182 166.535 455.113 166.318 455.095 166.094C455.076 165.87 455.11 165.644 455.191 165.436C455.303 165.092 455.465 164.768 455.672 164.474L456.105 163.594L456.201 163.366C456.202 163.219 456.313 163.072 456.362 162.926C456.459 162.615 456.54 162.299 456.604 161.979L456.605 161.734L456.606 161.62L456.608 161.097C456.641 160.728 456.643 160.356 456.613 159.987C456.604 159.309 456.495 158.636 456.288 157.993C455.944 156.864 457.662 156.088 458.15 157.184L458.261 157.201Z" fill="white"/>
<path d="M397.314 87.305C398.158 86.961 399.047 86.7449 399.953 86.6633C400.893 86.6154 401.835 86.6743 402.763 86.8389C404.581 87.1731 406.322 87.8508 407.9 88.8378C409.458 89.7952 410.849 91.0161 412.013 92.4492C412.623 93.1956 413.152 94.0085 413.59 94.8734C413.83 95.395 414.009 95.9441 414.123 96.5091C414.293 97.0399 414.29 97.6131 414.116 98.1424C414.058 98.346 413.956 98.5335 413.817 98.6907C413.679 98.8479 413.507 98.9708 413.316 99.0501C413.124 99.1294 412.918 99.1631 412.712 99.1486C412.506 99.1342 412.306 99.072 412.127 98.9666C411.402 98.4403 410.815 97.736 410.421 96.9175C410.056 96.3091 409.655 95.7238 409.222 95.1646C408.312 93.9934 407.215 92.989 405.979 92.194C404.754 91.3784 403.411 90.7662 402.001 90.3799C400.557 89.9461 399.073 89.6659 397.574 89.5438C397.314 89.5348 397.066 89.431 396.873 89.2511C396.681 89.0712 396.557 88.8268 396.524 88.5616C396.491 88.2964 396.55 88.0277 396.692 87.8034C396.834 87.5792 397.048 87.4141 397.298 87.3376L397.314 87.305Z" fill="#373F54"/>
<path d="M374.281 84.7701C375.143 91.2514 374.953 97.8352 373.719 104.253C373.104 107.377 372.274 110.452 371.232 113.454C370.352 116.636 368.835 119.595 366.779 122.14C366.666 122.271 366.515 122.36 366.349 122.393C366.182 122.427 366.009 122.404 365.857 122.328C365.704 122.251 365.58 122.125 365.503 121.969C365.427 121.814 365.402 121.636 365.432 121.464C366.086 118.475 366.992 115.55 368.139 112.722C369.14 109.736 369.986 106.697 370.672 103.619C372.071 97.4462 372.944 91.1596 373.28 84.831C373.301 84.7104 373.364 84.6013 373.455 84.523C373.547 84.4447 373.663 84.4021 373.782 84.4026C373.901 84.4031 374.017 84.4468 374.108 84.5259C374.199 84.605 374.26 84.7146 374.28 84.8354L374.281 84.7701Z" fill="#E86D57"/>
<path d="M394.636 114.717C394.628 116.464 395.607 117.873 396.814 117.878C398.021 117.884 399.012 116.483 399.019 114.736C399.027 112.988 398.049 111.579 396.842 111.574C395.635 111.569 394.644 112.936 394.636 114.717Z" fill="#373F54"/>
<path d="M350.99 104.839C350.982 106.587 351.96 108.012 353.167 108.017C354.374 108.023 355.365 106.606 355.373 104.858C355.381 103.111 354.402 101.702 353.195 101.697C351.988 101.691 350.997 103.108 350.99 104.839Z" fill="#373F54"/>
<path d="M382.763 131.357C381.388 133.513 379.438 135.217 377.146 136.264C374.855 137.311 372.319 137.657 369.841 137.262C368.583 137.148 367.375 136.698 366.337 135.956C366.111 135.78 365.95 135.531 365.879 135.249C365.808 134.967 365.832 134.669 365.947 134.403C366.316 133.718 367.173 133.804 367.791 133.97C370.023 134.631 372.368 134.792 374.666 134.441C377.414 133.976 379.967 132.686 382.004 130.733C382.09 130.652 382.202 130.605 382.319 130.601C382.436 130.597 382.551 130.637 382.642 130.712C382.734 130.787 382.796 130.893 382.818 131.011C382.84 131.13 382.821 131.252 382.763 131.357Z" fill="#E64B60"/>
<path d="M365.076 83.4067C363.797 83.8703 362.433 84.0264 361.087 83.8628C359.728 83.9029 358.376 84.083 357.051 84.4004C355.758 84.6952 354.499 85.1333 353.297 85.7069C352.199 86.2574 350.542 87.4751 349.273 87.0285C349.079 86.9659 348.909 86.842 348.787 86.6744C348.665 86.5067 348.598 86.3038 348.595 86.0945C348.602 84.4612 350.528 83.4734 351.785 82.8419C353.224 82.1371 354.734 81.5961 356.287 81.2284C357.803 80.8741 359.355 80.7055 360.91 80.7261C362.26 80.732 364.372 80.8719 365.32 82.0031C365.406 82.0958 365.471 82.2076 365.51 82.3299C365.548 82.4522 365.559 82.5819 365.542 82.7092C365.524 82.8365 365.479 82.9581 365.409 83.0648C365.34 83.1715 365.247 83.2606 365.139 83.3253L365.076 83.4067Z" fill="#373F54"/>
<path d="M447.572 215.251C467.3 225.383 497.344 233.436 511.449 250.844C523.675 265.957 531.787 291.897 535.769 311.139C543.545 348.56 545.389 387.833 535.311 415.31C535.311 415.31 481.701 424.874 433.96 414.276C383.443 403.062 378.356 396.898 378.356 396.898L382.427 384.862C382.427 384.862 366.371 366.711 361.505 335.771L333.493 334.994C333.493 334.994 331.662 299.984 344.025 276.633C356.388 253.282 362.059 249.371 373.016 238.852C373.016 238.852 378.176 253.672 406.898 251.593C435.621 249.515 447.572 215.251 447.572 215.251Z" fill="white"/>
<mask id="mask2_34_2" style="mask-type:luminance" maskUnits="userSpaceOnUse" x="333" y="215" width="210" height="205">
<path d="M447.572 215.251C467.3 225.383 497.344 233.436 511.449 250.844C523.675 265.957 531.787 291.897 535.769 311.139C543.545 348.56 545.389 387.833 535.311 415.31C535.311 415.31 481.701 424.874 433.96 414.276C383.443 403.062 378.356 396.898 378.356 396.898L382.427 384.862C382.427 384.862 366.371 366.711 361.505 335.771L333.493 334.994C333.493 334.994 331.662 299.984 344.025 276.633C356.388 253.282 362.059 249.371 373.016 238.852C373.016 238.852 378.176 253.672 406.898 251.593C435.621 249.515 447.572 215.251 447.572 215.251Z" fill="white"/>
</mask>
<g mask="url(#mask2_34_2)">
<path d="M438.928 382.399C439.737 376.339 441.94 370.565 445.355 365.555C448.313 360.897 451.573 356.436 454.816 352.008C461.341 342.97 468.435 334.38 476.051 326.295C483.626 318.305 492.054 311.219 501.173 305.172C505.952 301.927 513.233 296.732 518.306 302.324C518.687 302.758 519.025 303.23 519.316 303.733C519.679 303.616 520.07 303.637 520.419 303.791C520.768 303.945 521.052 304.223 521.218 304.574C521.835 305.757 522.361 306.988 522.79 308.256C523.134 309.499 523.43 310.774 523.726 312.033C524.287 314.58 524.721 317.155 525.027 319.748C525.741 325.098 526.115 330.49 526.147 335.89C526.205 346.54 524.631 357.132 521.483 367.278C515.185 387.21 501.249 407.157 480.736 412.996C475.863 414.466 470.732 414.798 465.719 413.967C460.705 413.137 455.935 411.166 451.758 408.197C443.843 402.38 437.818 392.799 438.928 382.399Z" fill="#F0B8EA"/>
<path d="M361.911 340.934C361.911 340.934 360.129 316.426 373.378 286.497C373.378 286.497 344.396 314.969 339.227 345.783L361.911 340.934Z" fill="#F0B8EA"/>
</g>
<path d="M479.596 296.666C496.674 306.328 507.69 329.276 499.892 351.063C493.331 369.49 461.559 400.465 438.249 403.303C420.79 375.46 425.001 364.045 431.905 339.853C434.212 331.697 452.87 307.05 458.497 298.696C458.497 298.696 462.487 287.003 479.596 296.666Z" fill="#EB9C7B"/>
<path d="M417.444 237.038C417.444 237.038 418.785 220.956 414.354 217.424C409.923 213.893 407.077 229.071 407.077 229.071L417.444 237.038Z" fill="#E6835A"/>
<path d="M437.765 339.879C437.765 339.879 419.828 305.223 420.169 274.665C420.51 244.107 420.184 238.732 420.184 238.732C420.184 238.732 393.633 201.931 383.817 202.296C374.001 202.662 392.211 225.624 392.211 225.624C392.211 225.624 367.889 202.096 364.8 207.456C361.712 212.816 381.07 231.227 381.07 231.227C381.07 231.227 364.238 216.175 360.866 220.881C357.495 225.586 372.753 237.266 372.753 237.266C372.753 237.266 365.144 241.316 365.457 249.484C365.771 257.652 375.704 266.842 375.704 266.842C367.433 341.938 392.914 394.529 438.312 403.221" fill="#EB9C7B"/>
<path d="M486.683 237.996C486.683 237.996 513.221 237.884 525.928 277.368C540.561 322.871 499.055 360.777 499.055 360.777C489.427 332.789 476.779 308.789 452.918 299.635C452.918 299.652 459.261 262.179 486.683 237.996Z" fill="white"/>
<path d="M419.613 238.615C420.089 246 419.834 253.398 420.278 260.799C420.73 268.264 421.572 275.699 422.8 283.072C425.184 297.667 428.978 311.981 434.127 325.8C435.602 329.678 437.174 333.507 438.745 337.352C439.546 339.315 440.316 341.279 441.181 343.242C442.045 345.206 442.482 347.135 443.251 349.05C443.518 349.737 442.501 350.059 442.138 349.519C441.097 347.881 439.832 346.503 438.982 344.833C438.132 343.164 437.154 341.559 436.32 339.84C434.667 336.566 433.173 333.097 431.807 329.628C429.047 322.639 426.671 315.497 424.691 308.233C420.728 293.692 418.443 278.721 417.883 263.63C417.711 259.47 417.65 255.299 417.7 251.118C417.709 249.011 417.719 246.855 417.95 244.749C418.182 242.643 418.493 240.587 418.899 238.498C418.901 238.041 419.647 238.191 419.676 238.616L419.613 238.615Z" fill="#E86D57"/>
<path d="M374.693 236.605C374.053 237.762 373.096 238.77 372.392 239.861C371.666 240.955 371.054 242.124 370.566 243.349C369.59 245.883 369.187 248.613 369.388 251.33C369.656 254.334 370.53 257.248 371.955 259.884C372.715 261.324 373.546 262.724 374.445 264.076C375.479 265.245 376.196 266.674 376.524 268.218C376.615 269.067 375.708 269.537 375.026 269.403C373.312 269.053 372.034 267.202 371.055 265.858C369.954 264.402 369.003 262.832 368.217 261.174C366.661 257.992 365.767 254.512 365.594 250.954C365.536 247.778 366.185 244.63 367.492 241.751C368.647 239.224 371.043 236.001 373.872 235.556C374.005 235.519 374.146 235.523 374.277 235.569C374.407 235.614 374.522 235.698 374.607 235.81C374.691 235.922 374.741 236.057 374.751 236.199C374.761 236.34 374.73 236.481 374.662 236.605L374.693 236.605Z" fill="#E86D57"/>
<path d="M519.436 287.253C520.787 297.859 518.42 308.972 514.375 318.738C513.354 321.223 512.204 323.65 510.928 326.007C509.864 328.351 508.316 330.429 506.391 332.096C504.304 333.589 502.261 332.274 501.97 329.871C501.663 326.975 501.569 324.059 501.691 321.148C501.877 314.942 502.686 307.923 505.585 302.366C505.937 301.698 507.175 301.981 507.044 302.781C506.562 307.678 505.413 312.573 504.994 317.471C504.793 319.953 504.702 322.452 504.739 324.935C504.734 326.111 504.808 327.271 504.883 328.447C504.881 328.708 505.13 329.918 504.877 329.737C504.624 329.556 504.878 329.541 505.069 329.346C505.261 329.151 505.548 328.858 505.771 328.614C507.162 326.88 508.348 324.983 509.306 322.962C510.405 320.891 511.4 318.764 512.288 316.589C514.008 312.253 515.361 307.772 516.333 303.197C517.39 297.998 518.092 292.729 518.435 287.429C518.438 286.841 519.439 286.6 519.516 287.286L519.436 287.253Z" fill="#F0B8EA"/>
<path d="M507.535 248.883C505.628 248.272 503.645 247.949 501.647 247.926C499.652 247.867 497.658 248.089 495.721 248.586C491.938 249.637 488.437 251.56 485.484 254.209C479.283 259.555 474.661 266.82 470.77 274.038C468.48 278.291 466.444 282.659 464.218 286.945C463.881 287.63 463.026 287.103 463.124 286.45C464.371 277.342 468.936 268.64 474.24 261.363C479.337 254.345 485.719 247.644 494.289 245.542C496.628 244.93 499.053 244.748 501.454 245.002C502.616 245.126 503.764 245.366 504.881 245.719C505.999 246.173 507.062 246.759 508.049 247.465C508.73 247.909 508.281 249.099 507.472 248.85L507.535 248.883Z" fill="#F0B8EA"/>
<path d="M339.774 477.741L453.518 499.082L359.238 518.954L185.71 466.692L339.774 477.741Z" fill="#373F54"/>
<path d="M359.159 518.97C359.327 506.035 310.228 367.33 290.387 310.697C290.387 310.697 177.918 288.316 124.822 292.918C124.822 292.918 169.253 406.138 185.63 466.708L359.159 518.97Z" fill="#6C7281"/>
<path d="M220.906 332.197C222.766 334.819 224.072 337.812 224.743 340.984C225.173 344.253 223.966 347.874 221.117 349.249C218.268 350.625 214.764 349.319 212.455 347.202C210.736 345.648 209.379 343.716 208.484 341.549C207.59 339.382 207.18 337.036 207.285 334.685C207.286 332.849 207.912 331.072 209.054 329.662C211.32 327.206 215.415 327.665 218.043 329.701C220.67 331.738 222.085 334.978 223.437 338.055" fill="#373F54"/>
<path d="M292.087 310.46C295.731 319.753 299.167 329.143 302.572 338.55C307.374 351.768 312.08 365.019 316.802 378.269C321.969 392.774 327.061 407.322 332.079 421.913C336.784 435.49 341.345 449.1 345.7 462.806C348.832 472.914 351.964 483.054 354.3 493.42C354.503 494.302 354.546 495.348 354.717 496.133C355.044 497.571 352.898 498.166 352.571 496.728C352.384 495.877 351.943 494.896 351.693 493.98C351.443 493.064 351.162 492.034 350.88 491.085C350.191 488.828 349.518 486.588 348.829 484.347C347.202 478.895 345.521 473.493 343.787 468.139C339.526 454.759 335.01 441.444 330.463 428.162C325.467 413.571 320.39 399.017 315.234 384.502C310.434 370.957 305.645 357.401 300.866 343.834C297.336 333.839 293.759 323.844 290.818 313.655C290.568 312.772 290.318 311.906 290.083 311.039C289.692 309.665 291.6 309.233 292.087 310.476L292.087 310.46Z" fill="#373F54"/>
<path d="M274.67 316.573C260.483 314.143 246.28 311.63 232.043 309.526C217.807 307.422 203.791 305.841 189.598 304.685C181.485 304.028 173.39 303.143 165.294 302.226C165.193 302.205 165.101 302.149 165.036 302.067C164.97 301.985 164.935 301.881 164.935 301.775C164.936 301.669 164.972 301.566 165.038 301.484C165.105 301.402 165.196 301.347 165.298 301.328C172.532 300.982 179.779 301.036 187.007 301.488C194.247 302.032 201.475 302.712 208.692 303.527C222.978 305.223 237.104 307.294 251.178 310.035C259.112 311.572 267.045 313.502 274.849 315.692C275.324 315.825 275.115 316.526 274.639 316.459L274.67 316.573Z" fill="white"/>
<path d="M51.6289 533.935L59.6242 593.782L118.029 577.379L136.805 641.324C123.291 644.858 75.5936 646.037 49.9956 645.385C49.9956 645.385 24.9306 657.149 11.032 632.409C4.22453 620.276 12.321 588.445 12.321 588.445C12.321 588.445 -6.9756 545.257 8.89052 519.831" fill="#EB9C7B"/>
<mask id="mask3_34_2" style="mask-type:luminance" maskUnits="userSpaceOnUse" x="2" y="519" width="135" height="130">
<path d="M51.6289 533.935L59.6242 593.782L118.029 577.379L136.805 641.324C123.291 644.858 75.5936 646.037 49.9956 645.385C49.9956 645.385 24.9306 657.149 11.032 632.409C4.22453 620.276 12.321 588.445 12.321 588.445C12.321 588.445 -6.9756 545.257 8.89052 519.831" fill="white"/>
</mask>
<g mask="url(#mask3_34_2)">
<path d="M87.0446 559.194C91.9118 596.325 87.0526 634.121 72.9689 668.679L129.079 661.168C130.749 661.117 132.366 660.555 133.724 659.555C134.736 658.464 135.444 657.113 135.774 655.644C140.091 641.849 142.995 627.63 144.441 613.216C145.305 604.546 145.63 595.695 143.793 587.194C141.956 578.693 138.083 571.032 133.828 563.614C130.528 557.883 126.995 552.309 123.229 546.891" fill="#E6835A"/>
</g>
<path d="M465.772 471.843L457.356 489.642C457.356 489.642 368.732 498.04 273.533 546.294C273.533 546.294 183.616 556.401 123.716 573.402L136.517 649.163C136.517 649.163 232.032 669.787 285.71 630.447C285.71 630.447 504.337 665.708 530.908 575.192C557.478 484.676 465.772 471.843 465.772 471.843Z" fill="#DA81D1"/>
<path d="M125.724 568.135C125.724 568.135 160.481 609.497 147.579 654.405L109.464 654.238C106.787 623.814 100.703 598.797 90.2377 580.654L125.724 568.135Z" fill="#F0B8EA"/>
<path d="M468.87 489.464C465.278 490.118 461.717 490.903 458.11 491.491C454.502 492.08 450.942 492.603 447.367 493.077C440.597 494.044 433.859 495.125 427.12 496.255C414.406 498.377 401.716 500.962 389.05 504.009C376.967 506.929 364.978 510.339 353.161 514.256C341.009 518.286 329.015 522.839 317.209 527.817C310.908 530.468 304.65 533.201 298.433 536.016C291.892 538.992 285.274 541.773 278.717 544.749C277.126 545.493 275.408 546.221 273.69 546.834C273.037 547.076 272.692 546.078 273.234 545.721C276.419 543.628 279.762 541.961 283.073 540.179C286.384 538.397 289.345 536.776 292.624 535.19C298.815 532.114 305.148 529.3 311.481 526.551C323.415 521.344 335.532 516.634 347.832 512.419C359.666 508.355 371.651 504.798 383.787 501.748C396.252 498.537 408.873 496.028 421.54 493.862C428.263 492.716 435.017 491.716 441.771 490.815C448.867 489.701 456.017 488.985 463.188 488.672C465.062 488.68 466.937 488.541 468.811 488.468C469.335 488.47 469.459 489.32 468.934 489.415L468.87 489.464Z" fill="#DA81D1"/>
<path d="M123.651 580.899C128.324 587.211 131.869 594.328 134.12 601.917C135.225 605.65 135.99 609.481 136.404 613.36C136.592 615.292 136.652 617.235 136.585 619.175C136.663 621.202 136.434 623.228 135.908 625.183C135.863 625.329 135.773 625.456 135.653 625.547C135.533 625.637 135.387 625.685 135.238 625.684C135.089 625.684 134.945 625.634 134.825 625.543C134.705 625.452 134.617 625.323 134.574 625.177C134.248 623.326 134.065 621.452 134.026 619.572C133.844 617.644 133.583 615.699 133.305 613.787C132.793 610.073 132.024 606.402 131.003 602.801C128.897 595.471 125.593 588.563 121.231 582.374C120.157 580.867 122.593 579.473 123.651 580.931L123.651 580.899Z" fill="#DA81D1"/>
<path d="M118.841 584.177C124.945 597.545 127.163 612.444 125.227 627.08C125.001 629.077 124.621 631.052 124.089 632.987C123.589 634.733 123.15 637.181 121.905 638.515C121.831 638.589 121.739 638.643 121.639 638.67C121.538 638.698 121.433 638.698 121.333 638.671C121.232 638.645 121.14 638.592 121.065 638.518C120.991 638.444 120.936 638.351 120.906 638.249C120.802 637.255 120.865 636.249 121.094 635.277L121.585 631.768C121.865 629.629 122.223 627.507 122.455 625.352C122.914 620.828 123.025 616.274 122.785 611.732C122.323 602.667 120.348 593.752 116.945 585.377C116.411 584.085 118.227 582.933 118.84 584.259L118.841 584.177Z" fill="#DA81D1"/>
<path d="M506.682 493.452C504.865 492.618 503.002 491.895 501.102 491.288C499.246 490.61 497.391 489.982 495.504 489.434C491.788 488.288 488.011 487.36 484.192 486.657C476.611 485.337 468.888 485.116 461.247 486.001C459.086 486.253 456.956 486.668 454.81 487.05C453.729 487.242 452.633 487.27 451.537 487.477C450.465 487.734 449.376 487.909 448.279 488.002C448.078 488.03 447.874 487.981 447.706 487.865C447.537 487.748 447.417 487.572 447.367 487.37C447.316 487.168 447.34 486.954 447.434 486.769C447.527 486.584 447.683 486.441 447.873 486.367C449.662 485.452 451.531 484.716 453.457 484.17C455.335 483.569 457.269 483.173 459.227 482.987C463.198 482.389 467.209 482.117 471.221 482.174C479.341 482.177 487.398 483.644 495.024 486.509C497.082 487.314 499.097 488.227 501.063 489.246C503.123 490.317 504.991 491.681 506.987 492.882C507.303 493.063 506.984 493.535 506.699 493.387L506.682 493.452Z" fill="#7B42A9"/>
<path d="M529.845 535.057C529.273 538.319 528.298 541.492 526.945 544.501C525.529 547.513 523.858 550.391 521.952 553.103C518.209 558.463 513.929 563.404 509.182 567.845C499.399 576.992 488.507 584.801 476.777 591.075C451.944 604.457 424.28 611.277 396.478 613.458C388.042 614.123 379.592 614.331 371.064 614.163C366.745 614.144 362.459 613.716 358.157 613.322C353.943 613.018 349.747 612.492 345.585 611.748C344.982 611.631 345.161 610.684 345.733 610.67C349.497 610.589 353.261 610.703 357.008 610.834C360.756 610.965 364.393 610.867 368.125 610.883C375.605 610.834 383.038 610.818 390.504 610.393C405.104 609.651 419.604 607.489 433.809 603.936C458.851 597.513 483.024 586.186 502.888 569.026C508.416 564.387 513.482 559.195 518.012 553.527C520.222 550.706 522.206 547.705 523.943 544.553C524.776 543.054 525.45 541.456 526.266 539.957C527.169 538.275 527.962 536.532 528.64 534.741C528.687 534.57 528.798 534.426 528.949 534.339C529.099 534.252 529.277 534.231 529.444 534.279C529.61 534.328 529.75 534.442 529.835 534.597C529.919 534.752 529.94 534.935 529.893 535.106L529.845 535.057Z" fill="#7B42A9"/>
<path d="M274.262 615.469C272.763 616.686 271.204 617.823 269.593 618.878C268.001 619.835 266.409 620.677 264.817 621.503C261.507 623.122 258.118 624.626 254.665 625.966C247.777 628.597 240.707 630.695 233.515 632.243C218.796 635.245 203.852 636.939 188.851 637.306C180.343 637.726 171.819 637.574 163.331 636.851C163.19 636.827 163.062 636.751 162.97 636.639C162.878 636.526 162.827 636.384 162.828 636.236C162.829 636.089 162.88 635.947 162.973 635.835C163.066 635.723 163.195 635.649 163.336 635.626C170.725 634.711 178.127 634.482 185.577 634.189C193.026 633.895 200.429 633.486 207.817 632.8C222.44 631.621 236.887 628.736 250.877 624.202C254.711 622.896 258.497 621.41 262.22 619.777C264.151 618.925 266.061 618.035 267.949 617.107C269.859 616.168 271.863 615.491 273.789 614.552C273.905 614.508 274.032 614.507 274.148 614.55C274.264 614.593 274.361 614.676 274.423 614.786C274.485 614.895 274.508 615.024 274.487 615.149C274.466 615.273 274.403 615.387 274.309 615.469L274.262 615.469Z" fill="#7B42A9"/>
<path d="M7.01084 524.723C4.91235 517.984 4.26328 510.288 7.65721 504.129C9.48202 500.871 13.5127 497.981 16.7602 499.841C18.0988 500.77 19.1379 502.088 19.7452 503.627C21.2938 506.908 22.3136 510.427 22.7645 514.045C23.8516 511.936 25.5528 510.23 27.6298 509.166C28.7149 508.535 29.9714 508.288 31.2062 508.463C32.0963 508.715 32.9038 509.208 33.5437 509.893C34.1835 510.577 34.632 511.426 34.8418 512.35C35.2496 514.205 35.3166 516.122 35.0393 518.002C37.3835 515.808 40.631 514.074 43.6439 515.1C46.6569 516.126 47.9852 521.032 45.1989 522.637C46.6633 521.671 48.3853 521.202 50.1222 521.297C51.859 521.392 53.523 522.044 54.8795 523.164C56.236 524.283 57.2166 525.812 57.6829 527.535C58.1491 529.258 58.0776 531.089 57.4784 532.768C56.0472 536.796 51.9873 539.114 48.0897 540.632" fill="#EB9C7B"/>
<path d="M44.058 540.124C42.665 539.089 41.4798 537.745 40.1667 536.596C38.8536 535.447 37.6668 534.461 36.3528 533.508C33.6107 531.501 30.6424 529.843 27.5127 528.57C24.4787 527.361 21.3066 526.556 18.0738 526.176C16.4864 525.989 14.8984 525.966 13.2156 525.828C11.5328 525.69 9.84878 525.813 8.24622 525.48C8.10948 525.445 7.98581 525.369 7.89081 525.262C7.7958 525.155 7.73368 525.021 7.71225 524.878C7.69081 524.735 7.71105 524.588 7.77037 524.457C7.82969 524.325 7.92545 524.215 8.04565 524.139C9.65049 523.396 11.3649 522.934 13.1178 522.773C14.8065 522.568 16.513 522.576 18.1998 522.796C25.3165 523.587 32.0923 526.343 37.8101 530.771C40.8491 532.886 43.3743 535.691 45.1906 538.97C45.2739 539.131 45.3037 539.315 45.2753 539.495C45.2469 539.675 45.1619 539.84 45.0334 539.966C44.9049 540.091 44.7399 540.17 44.5638 540.19C44.3876 540.209 44.21 540.169 44.0582 540.075L44.058 540.124Z" fill="white"/>
<path d="M52.008 537.987C54.4613 543.502 55.4506 549.68 56.4726 555.63C57.4946 561.58 58.3564 567.856 59.0122 574.016C59.668 580.177 60.1479 586.614 60.406 592.936C60.5356 595.975 60.6335 598.997 60.636 602.035C60.558 605.316 60.2677 608.589 59.7671 611.831C59.7664 611.995 59.7021 612.153 59.5884 612.269C59.4747 612.385 59.3209 612.449 59.1609 612.449C59.0008 612.448 58.8477 612.382 58.735 612.265C58.6223 612.148 58.5594 611.99 58.5602 611.825C58.2565 608.639 57.8095 605.55 57.7284 602.332C57.6472 599.114 57.5804 596.272 57.4507 593.25C57.1815 587.064 56.7428 580.882 56.1347 574.706C55.5265 568.546 54.7276 562.401 53.8016 556.288C52.8756 550.175 51.4885 544.175 51.3883 538.082C51.3897 537.756 51.8668 537.594 52.0084 537.905L52.008 537.987Z" fill="#E86D57"/>
<path d="M374.975 284.626C375.081 288.842 374.972 293.061 374.649 297.266C374.548 301.654 374.693 306.045 375.083 310.416C375.918 318.991 377.649 327.448 380.245 335.641C384.887 350.138 391.801 363.757 400.714 375.959C402.529 378.466 404.392 380.957 406.255 383.432C407.63 385.317 409.146 387.087 410.79 388.727C410.873 388.833 410.918 388.965 410.919 389.101C410.92 389.237 410.877 389.37 410.795 389.477C410.714 389.584 410.6 389.66 410.471 389.693C410.343 389.725 410.208 389.712 410.087 389.655C406.093 387.012 402.514 383.758 399.473 380.005C395.036 374.502 391.116 368.578 387.767 362.313C379.496 347.427 374.298 330.946 372.495 313.9C371.946 308.808 371.73 303.683 371.848 298.56C371.996 293.792 372.272 288.762 374.388 284.476C374.532 284.183 374.912 284.364 374.927 284.625L374.975 284.626Z" fill="#373F54"/>
<path d="M322.676 508.895C318.827 508.16 315.019 507.211 311.27 506.052C307.448 504.859 303.657 503.601 299.851 502.376C292.16 499.892 284.468 497.408 276.76 494.973C261.155 490.081 245.517 485.303 229.846 480.639C225.516 479.346 221.171 478.02 216.873 476.597C212.575 475.173 208.565 473.457 204.411 471.822C204.3 471.79 204.195 471.736 204.104 471.663C204.013 471.59 203.937 471.499 203.88 471.396C203.823 471.292 203.786 471.179 203.772 471.061C203.757 470.943 203.766 470.823 203.797 470.708C203.827 470.594 203.88 470.486 203.951 470.393C204.022 470.299 204.11 470.22 204.211 470.162C204.311 470.103 204.422 470.065 204.537 470.05C204.652 470.036 204.768 470.044 204.879 470.076C208.735 470.861 212.624 471.433 216.447 472.43C220.27 473.427 224.156 474.538 228.01 475.649C235.846 477.889 243.649 480.308 251.452 482.678C267.153 487.467 282.87 492.354 298.363 497.812C302.565 499.301 306.767 500.757 310.921 502.375C315.075 503.968 319.12 505.847 323.029 507.998C323.536 508.278 323.168 508.995 322.676 508.895Z" fill="#373F54"/>
<path d="M225.297 518.381C225.297 518.381 157.988 501.164 129.951 531.486C129.951 531.486 118.618 526.389 110.457 500.629C110.457 500.629 111.282 489.901 155.716 479.758C179.132 474.405 209.185 487.849 209.185 487.849L225.297 518.381Z" fill="#F0B8EA"/>
<path d="M210.402 481.877C204.291 472.909 196.282 465.483 186.978 460.157C177.673 454.832 167.315 451.746 156.683 451.13" fill="#DA81D1"/>
<path d="M210.036 482.071C207.563 478.638 204.739 475.488 201.612 472.675C198.588 469.836 195.361 467.234 191.959 464.891C185.159 460.253 177.662 456.798 169.77 454.667C165.392 453.504 160.787 453.157 156.458 451.864C156.301 451.821 156.164 451.727 156.065 451.595C155.967 451.463 155.915 451.301 155.915 451.135C155.916 450.969 155.97 450.808 156.069 450.676C156.169 450.545 156.307 450.452 156.464 450.41C160.643 449.892 164.88 450.238 168.926 451.429C173.075 452.422 177.125 453.807 181.026 455.565C188.865 458.998 195.98 463.966 201.973 470.194C205.204 473.747 208.126 477.586 210.705 481.666C210.973 482.075 210.336 482.432 210.052 482.038L210.036 482.071Z" fill="#7B42A9"/>
<path d="M200.209 477.52C198.935 476.965 197.696 476.327 196.501 475.609C195.25 474.934 193.966 474.307 192.682 473.73C190.018 472.519 187.26 471.54 184.437 470.803C181.701 470.08 178.907 469.608 176.089 469.394C173.152 469.153 170.197 469.368 167.261 469.11C167.025 469.101 166.8 469.007 166.625 468.844C166.451 468.68 166.338 468.459 166.307 468.219C166.275 467.978 166.328 467.734 166.455 467.53C166.581 467.325 166.774 467.173 166.999 467.1C172.708 465.378 179.374 466.436 185.005 467.996C187.897 468.803 190.702 469.909 193.376 471.3C196.154 472.544 198.659 474.356 200.737 476.624C201.022 477.001 200.732 477.734 200.209 477.52Z" fill="#7B42A9"/>
</g>
<defs>
<clipPath id="clip0_34_2">
<rect width="586.146" height="650.674" fill="white" transform="matrix(-0.99999 -0.00439536 -0.00439536 0.99999 589 3)"/>
</clipPath>
</defs>
</svg>
