<svg width="53" height="55" viewBox="0 0 53 55" fill="none" xmlns="http://www.w3.org/2000/svg">
<g clip-path="url(#clip0_55_37)">
<path d="M45.1798 48.4259C40.899 52.5254 34.826 55 26.8736 55C16.668 55 7.45674 48.8418 2.93726 39.8636L11.9098 32.723C13.9873 39.3268 19.902 44.0921 26.8736 44.0921C30.7755 44.0921 33.9277 43.1044 36.3579 41.4055L45.1798 48.4259Z" fill="#34A853"/>
<path d="M11.1109 27.5C11.1093 29.2724 11.3787 31.0344 11.9096 32.723L2.93701 39.8636C1.00636 36.0366 -0.000427246 31.799 -0.000427246 27.5C-0.000427246 23.201 1.00636 18.9635 2.93701 15.1364L11.9096 22.2774C11.3787 23.9659 11.1093 25.7277 11.1109 27.5Z" fill="#FBBC05"/>
<path d="M45.1204 7.37463L37.5035 14.9903C34.7959 12.4487 31.1467 10.9079 26.8736 10.9079C19.9016 10.9079 13.9873 15.6732 11.9098 22.2774L2.93761 15.1364C7.45674 6.15716 16.6687 0 26.8736 0C34.2919 0 40.5757 2.79903 45.1204 7.37463Z" fill="#EA4335"/>
<path d="M53 27.5C53.0039 29.3948 52.8659 31.2872 52.5872 33.1608C51.6719 39.2233 49.2271 44.5505 45.1798 48.4259L36.3578 41.404C39.1466 39.4541 40.9846 36.5675 41.915 33.1608H27.2326V22.9726H52.6791C52.8938 24.4719 53.001 25.985 53 27.5Z" fill="#4285F4"/>
</g>
<defs>
<clipPath id="clip0_55_37">
<rect width="53" height="55" fill="white"/>
</clipPath>
</defs>
</svg>
